<svg width="511" height="777" viewBox="0 0 511 777" fill="none" xmlns="http://www.w3.org/2000/svg">
    <g style="mix-blend-mode:lighten" opacity="0.8">
        <path fill-rule="evenodd" clip-rule="evenodd" d="M132.08 610.014C130.854 616.973 127.877 627.46 120.629 637.203C123.867 634.213 127.643 631.195 131.612 628.315C136.339 624.856 141.437 621.48 146.315 618.448C141.975 615.471 137.234 612.646 132.08 610.014ZM231.381 230.959C235.268 241.694 254.684 282.511 325.405 287.39L368.661 214.051C368.523 211.832 368.151 207.326 367.352 201.263C367.269 200.904 367.214 200.546 367.2 200.16C366.07 191.823 364.127 180.771 360.861 168.686L360.641 167.997L360.627 167.969L360.613 167.928C360.503 167.597 360.406 167.253 360.365 166.908L359.786 164.869C359.607 164.442 359.469 164.001 359.4 163.56C354.756 147.85 347.839 130.804 337.559 115.921C333.108 129.77 323.53 154.286 308.317 168.135C290.347 184.451 273.149 189.122 267.417 190.28L231.381 230.959ZM320.361 297.697L317.729 303.623C314.008 304.381 307.504 306.007 298.533 309.59L298.409 309.631L297.926 309.838C296.3 310.485 294.592 311.202 292.814 312.015C277.284 318.905 270.352 339.424 268.023 348.175C248.593 349.842 232.36 348.492 218.979 345.556L218.414 345.363C218.028 345.239 217.615 345.184 217.215 345.157C187.698 338.294 172.402 323.715 167.014 317.569L224.064 240.44C232.263 257.445 256.572 291.882 320.361 297.697ZM221.901 225.737L260.609 182.053C261.436 180.964 262.676 180.206 264.123 180.027C264.165 180.027 281.804 177.905 301.344 160.128C318.349 144.681 327.706 113.027 329.856 104.98C327.168 100.639 315.882 88.2366 278.29 99.9498C263.503 104.552 253.127 103.354 246.292 98.8474C241.744 95.8709 238.809 91.5163 237.211 86.4727C235.736 81.7874 235.433 76.5233 236.053 71.273C237.555 58.4435 244.734 44.925 253.278 39.7436C255.772 38.2278 258.983 39.0547 260.472 41.5902L261.023 42.8856L264.413 55.219C264.95 57.162 264.358 59.1601 263.049 60.4692C261.478 62.4123 256.048 70.0741 260.885 76.5646C261.422 77.2812 263.186 76.2202 265.626 74.3047C267.885 72.5684 270.71 69.9088 273.742 67.0838C281.156 60.0972 289.906 51.8979 300.159 48.1083L300.255 48.0808L300.366 48.0532L300.421 48.0256L300.462 48.0118L300.531 47.9843L300.559 47.9705L300.655 47.9567L300.669 47.9429L300.752 47.9154L300.793 47.9016L300.862 47.8878L300.931 47.8741C304.941 46.5512 337.834 36.9738 363.783 64.3966C365.05 56.6797 365.877 48.6871 366.111 40.4465C366.428 29.5324 365.726 18.0672 363.7 6.2713C363.204 3.34987 365.119 0.593782 367.958 0.0839101C370.301 -0.34328 372.561 0.896957 373.567 2.97778C376.02 7.27724 402.698 56.28 386.589 124.3C386.396 126.601 386.093 128.889 385.68 131.176C384.935 135.365 383.833 139.513 382.441 143.62C389.938 136.729 397.448 127.635 403.539 115.742C411.835 99.5916 417.54 78.1769 417.112 50.0375C417.085 47.1023 419.4 44.6632 422.28 44.6357C424.705 44.5943 426.786 46.2755 427.406 48.5493C427.489 48.8525 459.101 156.49 378.073 202.889C378.844 209.131 379.106 213.362 379.175 214.712C379.313 215.87 379.093 217.069 378.472 218.13L334.389 292.86L368.482 348.96C369.116 349.856 369.501 350.958 369.501 352.143V386.443L391.385 375.143C393.231 374.192 395.381 374.467 396.924 375.653C397.062 375.777 447.581 415.188 461.072 419.515C463.841 420.397 465.371 423.429 464.503 426.254C464.145 427.439 463.373 428.417 462.422 429.065C461.637 429.699 457.296 433.185 451.288 437.526C472.358 465.859 509.496 509.707 509.592 509.831C509.937 510.259 510.226 510.727 510.433 511.251C511.521 513.966 510.254 517.107 507.58 518.224L469.423 534.25C467.452 535.27 464.985 534.939 463.345 533.272L405.261 474.016C396.649 482.161 387.554 487.838 378.472 491.641C360.282 499.234 342.216 499.4 327.885 497.305C326.231 519.119 319.603 537.971 310.797 553.86C306.815 561.025 302.378 567.585 297.747 573.552C297.858 585.885 298.023 608.044 297.995 625.503C297.982 637.341 297.899 647.083 297.651 650.184C297.265 655.352 293.007 664.791 288.019 675.815C281.624 689.968 273.907 707.055 272.695 718.217C270.628 737.207 296.322 774.675 294 776.963C293 776.963 293 776.963 290.5 776.963C289 776.963 287.385 776.963 286.351 776.963L258.391 776.99L257.909 776.963L206.232 776.99C203.366 776.99 201.5 776.99 201.5 776.99L194.974 711.3L194.96 711.245V711.176L194.946 710.556V710.404L194.96 710.321V710.266C195.084 706.27 195.718 659.086 155.369 625.283C149.747 628.7 143.477 632.724 137.675 636.955C132.549 640.689 127.878 644.534 124.584 648.062C122.738 650.046 120.257 652.21 117.308 654.359L116.936 654.649C107.193 661.677 91.9798 668.774 75.5674 670.579C58.783 672.425 40.7445 668.829 25.7378 654.304C22.5821 651.231 19.5367 647.676 16.7256 643.597C-15.9613 596.427 9.32543 536.744 9.39433 536.593C10.2763 534.553 12.371 533.189 14.6723 533.41C17.5524 533.685 19.6745 536.276 19.4126 539.211C16.5877 570.961 42.4534 603.965 42.5223 604.047C43.6385 605.549 43.983 607.603 43.2113 609.436L36.0592 626.675C41.778 634.089 62.173 656.95 89.5683 647.028C119.582 636.197 122.104 607.479 122.324 602.656C119.816 594.208 102.811 531.398 128.691 464.453L128.732 464.343L128.759 464.274L128.787 464.205L128.828 464.081L128.87 464.012L128.897 463.957L128.925 463.888L128.952 463.847L128.994 463.764L129.008 463.75L129.076 463.626L129.104 463.543L129.131 463.516L129.269 463.282L129.311 463.213L129.338 463.171L129.38 463.116L129.407 463.089L129.462 463.02L129.49 462.978L129.545 462.896L129.573 462.868L129.628 462.799L129.655 462.758L129.71 462.717L129.752 462.661L129.793 462.593L129.82 462.579L129.889 462.51C132.976 459.051 196.063 387.931 210.008 354.21C171.327 343.6 155.976 320.697 155.92 320.6C154.722 318.767 154.722 316.273 156.1 314.399L221.198 226.412C221.349 226.178 221.542 225.985 221.735 225.805L221.901 225.737ZM340.094 101.7C338.385 96.9733 329.373 73.4641 313.25 56.2111C328.064 54.6264 356.782 57.6443 372.905 99.7707C375.827 107.377 376.778 115.108 376.24 122.784C373.966 132.113 370.838 141.828 366.663 151.888C360.847 134.745 352.372 116.789 340.094 101.7ZM371.265 167.253C373.608 176.141 375.289 184.423 376.447 191.548C416.01 166.784 423.741 124.686 423.066 93.0873C420.489 103.533 416.961 112.724 412.84 120.758C401.527 142.834 385.762 156.215 373.043 164.014L371.899 165.971L371.265 167.253ZM328.987 304.271L326.259 310.389C325.487 312.373 323.585 313.793 321.367 313.793C321.353 313.793 316.433 314.247 306.25 318.037C315.166 356.842 332.68 390.632 339.102 402.193L359.001 391.927V353.701L328.987 304.271ZM296.411 322.089C282.672 328.758 277.821 351.813 277.408 353.935C277.063 356.305 275.175 358.22 272.736 358.469C254.064 360.384 237.996 359.681 224.257 357.366C227.867 369.851 233.449 385.354 241.882 401.022L241.951 401.132L242.006 401.243V401.27L242.185 401.587L242.24 401.697C244.845 406.493 247.725 411.316 250.894 416.056C265.942 438.532 287.66 459.409 318.749 469.552L324.302 443.562L324.288 443.534L324.274 443.465L324.247 443.397L324.233 443.341L324.206 443.286L324.178 443.231L324.164 443.162L324.15 443.107L324.137 443.038L324.123 442.969L324.109 442.9L324.095 442.845L324.082 442.776L324.068 442.708L324.054 442.652V442.584L324.026 442.501V442.446V442.391L324.013 442.322L323.999 442.253V442.198L323.985 442.143V442.074L323.971 441.55V441.467L323.985 441.206L323.999 441.164L324.013 441.026L324.026 440.944L324.082 440.558L324.095 440.516L324.123 440.392L324.137 440.324L324.206 440.062L324.219 440.007L324.343 439.662L324.371 439.566L324.467 439.331L324.495 439.29L324.523 439.221L324.55 439.18L324.578 439.125L324.619 439.083L324.633 438.987L324.674 438.946L324.702 438.877L324.729 438.835L324.95 438.505L324.991 438.436L325.032 438.394L325.391 437.926L325.432 437.884L325.515 437.816L331.454 410.103C326.631 401.628 306.567 365 296.411 322.089ZM159.145 614.658C151.428 608.609 142.471 602.986 131.984 598.136C128.87 586.974 116.33 535.008 135.25 477.613C140.376 484.793 148.576 496.217 158.484 509.694L158.566 509.804C183.095 543.097 218.18 588.958 243.839 615.168L243.922 615.251L244.018 615.347C246.181 617.552 248.262 619.619 250.288 621.507C247.436 631.76 236.108 665.907 204.909 698.649C202.911 679.66 194.395 642.426 159.228 614.727L159.145 614.658ZM140.445 466.685C144.262 472.087 152.296 483.387 162.714 497.636C174.799 481.017 210.27 432.193 231.285 403.489C224.464 390.315 219.517 377.389 215.989 366.227C198.24 399.892 152.324 453.153 140.445 466.685ZM169.274 506.566C192.535 538.054 224.298 579.436 248.414 604.681C257.922 598.48 274.004 586.478 288.308 568.563L288.377 568.48L288.459 568.37L288.556 568.274L288.625 568.164C293.269 562.293 297.734 555.775 301.702 548.609C310.549 532.693 316.985 513.538 317.743 491.118V490.966L317.756 490.842C317.867 487.438 317.839 483.993 317.674 480.438C282.879 469.731 258.79 446.8 242.254 422.092C240.394 419.309 238.616 416.484 236.949 413.686C215.314 443.259 178.809 493.433 169.274 506.566ZM256.048 612.357C257.288 613.542 258.487 614.7 259.659 615.761C261.161 617.111 261.712 619.178 261.271 621.039V621.052L261.257 621.107C260.086 628.356 246.567 713.325 250.743 736.793C253.774 753.812 258.487 762.645 260.982 766.311H277.228C270.834 754.57 260.596 732.88 262.304 717.101C263.71 704.203 271.813 686.261 278.524 671.392C283.099 661.305 286.985 652.692 287.219 649.44C287.467 646.325 287.55 636.927 287.564 625.558C287.564 612.922 287.481 597.805 287.398 585.747C275.823 598.053 264.178 606.9 256.048 612.357ZM244.872 661.566C236.356 677.193 223.83 695.466 205.695 712.829L211.014 766.297H248.855C246.057 760.592 242.75 751.703 240.435 738.667C237.872 724.239 241.262 689.83 244.872 661.566ZM341.651 412.859L335.368 442.115V442.211L335.037 443.755L335.023 443.824L335.009 443.92L334.982 444.003L334.968 444.099L334.94 444.168L331.013 462.51C347.177 449.363 375.73 427.494 387.953 426.323C402.161 424.931 413.957 438.243 419.042 445.119C429.143 440.461 441.752 431.532 449.427 425.758C432.133 415.988 402.175 393.181 393.19 386.25L366.966 399.809L366.291 400.154L366.167 400.209L341.651 412.859ZM321.959 87.0239C317.081 77.8875 310.136 67.2354 301.248 59.2704C293.889 62.7568 286.902 69.3025 280.866 74.9662C277.766 77.8738 274.9 80.5747 271.978 82.8347C264.509 88.6362 258.101 90.4552 252.562 83.0139C244.046 71.5624 250.302 60.111 253.609 55.4808L253.251 54.2544C249.833 59.0637 247.27 65.8574 246.498 72.5408C246.044 76.3717 246.223 80.0787 247.187 83.193C248.056 85.9491 249.613 88.3192 251.955 89.8488C256.351 92.7565 263.793 93.2802 275.244 89.7387C297.224 82.8898 312.065 83.6615 321.959 87.0239ZM372.409 75.4209C375.482 80.12 378.362 85.5219 380.98 91.723C382.262 71.7002 379.905 54.4059 376.598 40.8048C376.254 52.9177 374.71 64.5207 372.409 75.4209ZM442.661 443.645C435.509 448.44 427.503 453.236 420.571 456.061C417.994 459.809 415.335 463.24 412.62 466.41L468.334 523.24L496.956 511.223C486.166 498.394 459.377 466.162 442.661 443.645ZM410.829 451.582C407.246 446.483 398.592 435.997 388.959 436.92C376.447 438.119 337.435 470.737 328.092 478.688C328.243 481.348 328.312 483.993 328.312 486.584C341.362 488.637 357.995 488.72 374.518 481.802C383.599 478.013 392.735 472.06 401.293 463.171L401.637 462.772L401.913 462.537C404.972 459.271 407.949 455.647 410.829 451.582ZM72.8527 660.161C44.1483 658.218 25.8343 630.533 25.7929 630.451C24.6767 628.756 24.6492 626.62 25.5312 624.925L32.4764 608.195C28.1769 602.16 17.5798 585.995 12.1504 566.661C8.93958 586.216 8.91199 613.749 25.3795 637.506C27.791 640.993 30.368 644.024 33.0552 646.601C44.9338 658.108 59.2929 661.291 72.8527 660.161Z" fill="url(#paint0_linear_281_6448)"/>
    </g>
    <defs>
        <linearGradient id="paint0_linear_281_6448" x1="365.5" y1="135.5" x2="95" y2="777" gradientUnits="userSpaceOnUse">
            <stop stop-color="white"/>
            <stop offset="1" stop-color="#585858"/>
        </linearGradient>
    </defs>
</svg>
