<?xml version="1.0" standalone="no"?>
<!DOCTYPE svg PUBLIC "-//W3C//DTD SVG 20010904//EN"
 "http://www.w3.org/TR/2001/REC-SVG-20010904/DTD/svg10.dtd">
<svg version="1.0" xmlns="http://www.w3.org/2000/svg"
 width="3508.000000pt" height="2480.000000pt" viewBox="0 0 3508.000000 2480.000000"
 preserveAspectRatio="xMidYMid meet">

<g transform="translate(0.000000,2480.000000) scale(0.100000,-0.100000)"
fill="#000000" stroke="none">
<path d="M17105 18934 c-327 -49 -839 -200 -1073 -318 -55 -27 -235 -87 -453
-150 -269 -78 -415 -154 -580 -304 l-76 -69 -99 -6 c-356 -24 -590 -17 -783
23 -55 11 -160 45 -246 80 -302 123 -621 217 -880 262 -172 29 -548 33 -690 6
-559 -106 -960 -428 -1230 -990 -199 -413 -245 -876 -140 -1392 13 -67 47
-206 75 -311 70 -258 75 -284 105 -490 84 -577 221 -1032 436 -1455 85 -167
161 -295 341 -568 76 -117 168 -267 203 -335 57 -110 135 -308 135 -343 0 -12
-120 -14 -797 -14 l-798 -1 -1869 -2522 -1868 -2522 5113 -5 5114 -5 105 -57
c127 -68 191 -88 285 -88 105 0 224 42 357 126 l38 24 5190 0 c2854 0 5190 2
5190 5 0 3 -856 1139 -1901 2525 l-1901 2520 -849 0 c-525 0 -849 4 -849 9 0
21 61 191 95 266 50 110 97 188 266 446 223 342 328 530 433 775 150 355 254
747 326 1233 21 146 47 269 90 425 109 406 140 603 140 888 -1 384 -90 712
-283 1040 -262 445 -629 713 -1109 810 -99 20 -142 23 -353 23 -205 -1 -259
-4 -368 -23 -276 -50 -537 -127 -867 -257 -103 -41 -221 -80 -266 -89 -191
-36 -443 -42 -784 -19 l-94 6 -66 62 c-88 82 -160 135 -250 184 -100 54 -176
81 -418 152 -212 62 -310 97 -472 169 -220 98 -683 230 -930 266 -87 12 -139
14 -210 8 -112 -9 -173 -9 -335 -1 -66 3 -133 3 -150 1z m275 -158 c44 -9 67
-8 115 2 96 22 281 11 455 -28 283 -63 581 -160 827 -268 90 -40 216 -82 488
-162 150 -44 309 -115 390 -174 28 -20 85 -71 128 -113 l78 -78 67 -7 c37 -4
191 -10 342 -14 435 -11 562 8 865 126 749 291 1241 348 1702 195 387 -129
688 -411 892 -835 185 -387 232 -757 155 -1220 -14 -84 -36 -174 -144 -595
-15 -60 -40 -192 -54 -293 -92 -643 -255 -1145 -522 -1608 -31 -54 -119 -193
-194 -309 -220 -337 -278 -439 -347 -618 -34 -89 -93 -302 -93 -338 0 -18 19
-19 902 -21 l902 -3 1403 -1860 c772 -1023 1579 -2093 1793 -2377 l390 -518
-4946 0 -4947 0 69 73 c38 39 81 87 96 104 l27 33 4635 2 4634 3 -1632 2165
-1632 2165 -992 3 c-546 1 -992 6 -992 10 0 5 14 46 31 93 17 46 44 140 59
209 36 157 69 264 116 382 70 176 117 261 324 578 187 287 243 383 340 583
180 371 290 756 370 1290 17 115 42 250 55 300 13 51 46 180 74 287 110 423
127 709 61 1013 -96 442 -388 850 -736 1029 -202 104 -362 141 -609 142 -322
1 -639 -74 -1118 -264 -306 -120 -397 -135 -842 -134 -225 1 -377 6 -479 17
l-149 15 -25 34 c-55 73 -171 177 -246 221 -79 46 -177 81 -470 167 -150 44
-255 83 -405 150 -184 81 -558 194 -786 236 -104 19 -266 15 -329 -8 -36 -13
-47 -13 -110 4 -98 26 -213 23 -363 -8 -251 -51 -564 -150 -778 -244 -138 -61
-285 -111 -525 -180 -252 -72 -395 -155 -513 -296 -50 -60 -67 -74 -96 -78
-137 -21 -327 -31 -596 -31 -432 0 -541 18 -845 138 -471 187 -792 262 -1115
261 -245 -1 -408 -38 -605 -140 -386 -199 -683 -651 -761 -1159 -6 -44 -12
-152 -12 -240 1 -237 30 -404 133 -785 28 -102 60 -241 71 -310 11 -69 34
-206 50 -305 58 -358 165 -731 293 -1021 87 -196 194 -386 374 -662 192 -294
211 -326 287 -484 71 -150 123 -302 165 -487 16 -69 44 -170 64 -223 l35 -98
-942 0 -942 0 -1600 -2161 c-880 -1188 -1601 -2165 -1603 -2170 -2 -5 1766 -9
4557 -9 2646 0 4561 -4 4561 -9 0 -5 41 -52 91 -105 l91 -96 -4867 0 c-4727 0
-4866 1 -4853 18 7 11 800 1082 1763 2380 l1750 2362 852 0 853 0 -6 28 c-86
366 -144 494 -402 887 -180 273 -255 399 -343 575 -205 410 -333 849 -414
1416 -18 124 -45 255 -90 424 -36 135 -74 286 -84 335 -128 591 -40 1109 268
1571 171 256 361 426 602 538 488 226 1041 186 1858 -134 298 -117 352 -125
781 -124 179 0 363 5 410 11 l86 10 59 63 c151 158 284 229 602 321 242 69
341 104 468 161 203 93 616 220 875 268 109 21 288 24 370 6z m-110 -778 c78
-31 239 -31 324 0 56 21 61 21 135 6 205 -42 488 -128 636 -191 215 -94 289
-120 534 -194 146 -44 276 -88 290 -99 62 -45 135 -142 178 -238 14 -31 52
-136 85 -232 68 -203 154 -387 233 -501 30 -44 55 -81 55 -82 0 -1 -57 -2
-128 -2 -136 -1 -360 -39 -329 -56 8 -5 90 -22 183 -38 255 -45 311 -69 380
-164 38 -52 94 -147 94 -160 0 -2 -30 12 -67 30 -38 18 -100 40 -140 48 -104
21 -336 38 -423 30 -158 -14 -381 -70 -484 -122 -48 -24 -166 -127 -166 -145
0 -4 31 8 70 27 137 69 323 109 559 121 236 11 442 -34 585 -127 l78 -52 -6
-40 c-15 -94 -122 -282 -251 -442 -130 -161 -145 -211 -120 -407 20 -151 16
-283 -9 -341 -28 -69 -73 -112 -205 -200 -195 -131 -266 -221 -296 -381 -29
-150 -16 -312 46 -582 17 -75 29 -137 27 -139 -2 -3 -28 2 -58 10 -69 18 -189
19 -255 1 -65 -17 -108 -39 -154 -81 l-38 -34 -16 98 c-9 54 -35 152 -57 217
-55 157 -55 160 -31 237 32 105 78 607 53 582 -5 -5 -22 -77 -37 -160 -33
-186 -69 -331 -100 -406 -40 -94 -41 -121 -5 -265 42 -170 50 -328 25 -507
-18 -127 -17 -179 5 -339 7 -55 10 -195 8 -387 l-3 -301 155 0 156 0 59 -60
59 -60 32 -232 32 -233 1 292 1 292 45 3 46 3 -67 90 c-36 50 -130 185 -209
300 l-142 210 -7 83 c-4 46 -14 106 -23 135 -13 45 -13 61 1 151 9 56 17 119
18 141 3 37 7 42 58 70 53 29 60 30 170 29 80 -1 135 -7 180 -20 l65 -19 23
-65 c97 -279 232 -597 277 -656 55 -72 141 -95 263 -70 317 64 713 274 1031
546 181 155 196 191 195 465 0 157 -4 208 -22 295 -40 188 -107 283 -209 297
-56 7 -101 -10 -189 -73 -42 -30 -79 -53 -82 -50 -9 10 74 169 132 255 78 115
162 218 188 232 42 23 93 -5 202 -111 144 -140 193 -230 262 -480 67 -242 189
-887 181 -958 -11 -101 -113 -247 -267 -380 -128 -111 -366 -268 -562 -372
l-93 -50 75 0 76 0 66 -67 c36 -38 346 -430 688 -873 343 -443 626 -809 631
-814 4 -5 -161 386 -367 869 -206 482 -374 879 -374 881 0 2 620 4 1378 4
l1378 0 56 -57 c31 -32 176 -226 322 -430 l265 -373 -263 0 -263 0 -65 68
c-35 37 -73 79 -82 95 -18 27 -20 27 -122 27 -57 0 -104 -3 -104 -6 0 -10 231
-373 244 -382 6 -5 272 -134 591 -286 539 -257 584 -281 632 -329 28 -29 387
-521 797 -1094 l745 -1043 -922 0 -923 0 -61 63 c-50 50 -100 129 -271 422
-116 198 -214 368 -217 378 -7 16 12 17 287 17 l295 0 59 -62 c33 -35 70 -80
83 -100 l23 -38 260 0 c149 0 258 4 256 9 -1 5 -167 250 -368 544 l-365 534
-585 278 c-518 247 -592 285 -648 333 -57 50 -83 89 -275 409 l-212 353 -63 0
c-62 0 -63 0 -51 -22 7 -13 398 -713 871 -1556 472 -843 861 -1539 865 -1547
4 -13 -36 -15 -299 -15 l-304 0 -55 58 c-51 52 -126 189 -854 1570 l-798 1512
-195 0 c-151 0 -193 -3 -189 -12 3 -7 327 -712 721 -1567 394 -854 716 -1555
716 -1557 0 -2 -132 -4 -293 -4 l-294 0 -64 68 c-35 37 -426 556 -869 1153
-443 598 -806 1085 -808 1084 -1 -1 171 -517 383 -1146 212 -628 385 -1147
385 -1151 0 -4 -298 -8 -663 -8 l-663 0 -61 63 -61 62 -353 898 -352 898 -61
-3 -61 -3 0 -115 c0 -63 4 -494 8 -957 l9 -843 -725 0 c-643 0 -726 2 -737 16
-12 13 -19 4 -54 -63 -59 -112 -96 -162 -209 -282 -148 -157 -220 -216 -325
-269 -89 -44 -99 -47 -192 -50 -155 -7 -257 33 -405 157 -93 77 -268 276 -313
354 -95 166 -158 410 -206 797 -14 113 -28 220 -30 238 l-5 32 294 0 293 0 6
113 c7 137 56 1888 56 2010 0 77 -2 87 -18 87 -17 0 -19 -16 -30 -167 -17
-249 -71 -1048 -72 -1050 0 -2 -150 -3 -334 -3 -184 0 -337 -4 -340 -8 -5 -9
-156 -1177 -156 -1211 0 -16 6 -21 28 -21 21 0 43 -15 87 -60 l59 -60 -34
-278 -35 -277 -2590 -3 -2591 -2 -56 57 -57 58 716 1405 c393 773 717 1411
720 1418 4 9 -49 12 -244 12 l-249 0 -57 58 -57 57 20 30 c11 17 20 33 20 38
0 4 -98 7 -218 7 l-219 0 -111 -167 -112 -168 262 -3 263 -2 57 -57 c32 -32
58 -62 58 -68 0 -5 -126 -221 -279 -480 l-278 -470 -304 -3 -303 -2 -58 57
c-32 31 -59 55 -61 52 -15 -17 -767 -1140 -767 -1144 0 -3 147 -5 328 -5 l327
0 55 98 56 97 287 3 288 2 60 -57 c34 -32 59 -64 57 -73 -2 -9 -93 -181 -203
-383 l-200 -367 -1170 0 -1171 0 -56 57 -57 58 200 280 200 280 99 5 99 5 842
1205 c463 663 853 1222 867 1243 l25 38 -42 43 -43 44 197 276 197 276 1262 0
1262 0 57 -58 57 -58 -132 -277 -132 -276 -100 -3 -99 -3 -584 -1224 c-320
-674 -583 -1226 -583 -1228 0 -2 131 -2 291 -1 l291 3 38 95 38 95 281 3 281
2 44 -40 c38 -35 45 -38 51 -23 19 50 785 2306 785 2314 0 5 -6 9 -13 9 -7 0
-40 28 -74 63 l-61 62 92 270 92 270 114 3 114 3 -117 64 c-473 260 -769 530
-801 730 -5 28 10 131 49 345 91 500 150 730 232 896 61 125 242 304 323 321
25 5 37 0 61 -23 41 -39 156 -193 209 -279 48 -79 103 -195 92 -195 -4 0 -38
22 -75 49 -115 84 -175 97 -263 55 -96 -46 -157 -232 -170 -524 -12 -237 20
-344 129 -447 256 -239 614 -457 912 -556 243 -80 336 -83 419 -16 59 49 140
221 267 569 l68 185 63 18 c86 24 224 33 285 18 26 -7 67 -25 90 -39 41 -26
43 -29 43 -77 0 -27 7 -89 15 -136 12 -66 13 -94 4 -115 -6 -16 -17 -76 -24
-134 l-14 -105 -108 -160 c-59 -87 -154 -224 -210 -302 l-102 -143 67 0 c58 0
69 -3 93 -26 l28 -27 7 27 6 26 194 0 194 0 1 328 c0 180 5 352 10 382 21 123
21 188 4 303 -25 168 -18 366 20 507 34 130 35 197 2 270 -32 73 -70 222 -102
400 -36 202 -47 216 -40 50 8 -192 30 -374 55 -459 l23 -73 -51 -151 c-28 -84
-57 -191 -63 -239 l-13 -86 -41 34 c-23 18 -68 45 -100 60 -75 35 -208 44
-305 21 -36 -9 -66 -14 -68 -12 -2 1 4 30 13 64 65 253 90 501 66 648 -27 156
-111 266 -297 388 -62 41 -127 89 -144 107 -77 80 -101 192 -79 373 8 61 14
146 14 190 0 95 -25 155 -104 250 -123 147 -242 347 -271 455 l-12 45 38 33
c63 54 188 110 299 134 138 30 407 30 575 0 122 -22 266 -68 339 -108 24 -13
46 -23 48 -21 7 8 -107 116 -149 141 -91 53 -331 115 -508 131 -98 9 -332 -10
-440 -36 -47 -11 -108 -33 -137 -49 -29 -17 -53 -27 -53 -24 0 19 69 132 116
188 83 101 184 141 426 169 110 13 112 14 73 25 -82 23 -221 42 -311 42 -52 0
-94 2 -94 3 0 2 25 42 57 88 80 119 151 274 228 499 37 107 82 224 101 260 48
91 116 174 166 204 24 13 137 52 251 86 256 75 351 108 489 170 58 27 164 69
235 93 134 47 463 134 548 146 6 0 35 -9 65 -21z m-4515 -373 c203 -31 469
-109 731 -216 167 -68 248 -94 360 -119 227 -49 572 -69 883 -51 188 11 473
36 518 46 l22 5 -23 -67 c-29 -84 -32 -105 -50 -278 -8 -77 -24 -169 -34 -205
-11 -36 -25 -90 -32 -120 -31 -143 -36 -154 -85 -174 -82 -33 -231 -223 -274
-347 -32 -91 -38 -210 -16 -301 32 -137 151 -355 260 -478 118 -133 136 -193
110 -366 -31 -203 -10 -350 65 -459 48 -70 91 -108 206 -186 178 -119 223
-171 243 -283 25 -134 8 -305 -54 -566 -40 -166 -43 -222 -16 -265 18 -30 18
-30 -19 -135 -104 -293 -198 -501 -234 -526 -23 -14 -34 -15 -87 -5 -102 21
-317 99 -439 161 -186 95 -353 209 -547 372 -110 93 -118 115 -117 308 1 150
19 283 51 382 15 45 22 53 45 56 50 6 139 -56 387 -266 47 -40 88 -72 93 -72
15 0 8 121 -12 221 -44 214 -133 398 -303 624 -120 160 -183 202 -284 192 -84
-9 -146 -49 -284 -187 -113 -112 -131 -135 -172 -217 -93 -188 -159 -438 -254
-962 -52 -291 -56 -319 -46 -377 36 -207 223 -424 566 -656 l132 -89 -65 7
c-357 36 -645 141 -815 297 -93 85 -119 136 -170 343 -55 224 -110 383 -186
543 -80 168 -126 246 -299 511 -239 366 -337 548 -434 809 -70 187 -75 171 74
235 235 100 470 226 550 295 l35 30 -75 -25 c-147 -49 -622 -164 -678 -164
-17 0 -24 14 -41 88 -19 83 -71 364 -71 388 0 7 46 13 138 17 244 11 532 64
760 139 67 22 121 42 120 44 -2 1 -66 12 -143 24 -336 49 -951 190 -959 218
-54 185 -120 461 -113 468 3 3 63 -11 134 -30 459 -126 1266 -305 1248 -276
-6 9 -150 99 -490 305 -421 255 -716 454 -840 567 l-50 45 19 59 c10 33 37
100 61 151 140 299 331 465 595 518 89 18 285 18 405 0z m9772 -4 c231 -48
405 -188 543 -436 107 -195 153 -373 152 -600 -1 -178 -23 -307 -107 -625 -75
-284 -88 -344 -109 -500 -79 -567 -214 -1005 -427 -1378 -39 -70 -138 -228
-219 -352 -81 -124 -180 -280 -218 -348 -119 -207 -221 -475 -276 -723 -31
-139 -42 -172 -74 -224 -123 -202 -459 -359 -864 -404 -54 -6 -100 -11 -104
-11 -3 0 50 37 119 83 157 106 250 181 357 293 141 147 208 270 217 394 5 65
-22 233 -98 620 -81 413 -165 662 -267 799 -55 73 -228 230 -290 264 -128 70
-229 41 -339 -97 -156 -196 -264 -385 -317 -555 -34 -107 -58 -247 -54 -311
l3 -51 165 138 c239 198 314 241 348 201 17 -21 50 -166 63 -272 14 -124 8
-308 -13 -357 -26 -59 -263 -253 -460 -375 -195 -121 -447 -228 -619 -263 -81
-17 -101 -6 -143 76 -35 71 -144 340 -192 476 -27 77 -27 79 -9 109 25 43 21
111 -14 253 -95 387 -91 608 14 733 14 16 86 71 160 122 146 100 195 147 242
237 56 104 60 155 37 495 -6 88 -4 100 18 150 14 29 57 91 96 138 189 226 299
495 272 665 -18 113 -44 170 -133 292 -69 96 -113 138 -172 163 l-42 18 -38
149 c-48 190 -69 298 -89 451 -9 68 -25 148 -35 177 l-19 54 26 -5 c73 -12
342 -35 549 -46 358 -18 690 8 938 74 44 11 159 52 254 90 301 119 540 192
740 223 131 20 319 18 428 -4z"/>
<path d="M17400 17323 c-119 -15 -202 -61 -244 -134 -19 -32 -19 -32 0 -24
152 64 324 77 454 33 41 -14 83 -29 94 -33 17 -7 17 -6 6 16 -29 56 -84 100
-150 119 -72 21 -122 28 -160 23z"/>
<path d="M17225 16803 c-99 -13 -239 -86 -309 -162 -35 -36 -30 -38 26 -10
116 59 401 98 584 79 141 -14 253 -37 352 -70 48 -16 88 -28 90 -26 1 2 -22
26 -51 53 -75 68 -175 118 -264 132 -67 10 -360 13 -428 4z"/>
<path d="M16655 16254 c-49 -11 -105 -27 -102 -30 2 -2 68 -13 148 -25 344
-49 569 -120 630 -197 43 -55 64 -215 39 -289 -13 -36 -32 -46 -142 -73 -101
-25 -286 -115 -351 -171 -26 -23 -46 -43 -44 -45 2 -2 28 6 58 19 80 35 233
84 319 102 225 47 468 18 719 -85 52 -22 97 -38 98 -36 2 2 -18 22 -44 46 -66
57 -247 145 -363 174 -108 28 -125 43 -136 114 -8 56 7 166 31 216 44 91 261
169 618 221 93 13 172 27 174 29 13 13 -87 28 -207 33 -253 10 -498 -50 -603
-146 -54 -50 -83 -52 -123 -10 -63 66 -162 106 -347 139 -106 18 -312 26 -372
14z"/>
<path d="M15534 15708 c-18 -18 -44 -57 -58 -85 l-26 -53 22 -4 c13 -2 68 -9
123 -15 153 -17 145 -13 145 -85 1 -236 288 -358 453 -192 20 20 46 54 57 76
l20 39 80 -30 c44 -16 80 -24 80 -18 0 5 -5 30 -11 53 -10 40 -17 47 -90 90
-215 128 -489 225 -709 251 -53 6 -56 5 -86 -27z"/>
<path d="M19165 15724 c-174 -31 -352 -93 -530 -185 -153 -79 -177 -97 -192
-148 -7 -24 -10 -47 -8 -51 2 -4 40 5 84 21 l79 28 10 -29 c16 -44 87 -115
140 -140 57 -27 149 -30 205 -6 100 43 170 148 170 253 -1 73 -12 67 167 87
60 7 113 15 116 18 7 8 -26 72 -65 126 -36 48 -44 50 -176 26z"/>
<path d="M17110 14589 c-109 -11 -229 -35 -305 -60 -94 -31 -219 -96 -251
-131 -16 -17 -22 -29 -14 -26 51 18 149 43 268 69 296 64 938 64 1244 0 80
-17 176 -40 213 -52 37 -11 69 -18 71 -16 7 7 -84 71 -144 101 -83 42 -218 83
-332 101 -123 20 -613 29 -750 14z"/>
<path d="M17265 13883 c-191 -12 -382 -50 -487 -95 -84 -36 -62 -42 125 -32
215 11 822 12 1062 1 178 -8 180 -8 158 11 -29 25 -165 68 -278 87 -173 28
-402 40 -580 28z"/>
<path d="M17215 13063 c-197 -14 -390 -55 -500 -108 -72 -34 -136 -86 -88 -71
12 4 98 19 190 33 150 23 207 26 532 30 387 5 502 -1 759 -41 78 -12 142 -20
142 -18 0 19 -125 83 -213 111 -182 56 -536 84 -822 64z"/>
<path d="M20043 11822 c-69 -26 -120 -49 -118 -56 7 -19 105 -428 105 -437 0
-4 -8 -9 -19 -11 -16 -3 43 -160 464 -1228 l482 -1225 61 -3 c35 -2 62 1 62 7
0 12 -897 2960 -907 2982 -7 14 -24 10 -130 -29z"/>
<path d="M17966 11382 l7 -62 -107 0 -106 0 0 -270 0 -270 230 0 230 0 0 33
c0 35 -26 371 -36 455 l-5 52 -47 0 c-44 0 -50 4 -109 62 l-63 63 6 -63z"/>
<path d="M18971 11354 c0 -11 3 -14 6 -6 3 7 2 16 -1 19 -3 4 -6 -2 -5 -13z"/>
<path d="M14735 11068 c-95 -309 -89 -288 -77 -288 5 0 15 21 21 48 7 26 19
71 27 100 l15 52 283 0 282 0 57 -58 c32 -32 57 -66 57 -77 -1 -11 -50 -227
-109 -480 l-108 -460 -304 -3 -303 -2 -58 57 c-61 60 -61 61 -42 126 5 15 1
18 -17 15 -21 -3 -38 -52 -211 -613 -103 -335 -188 -613 -188 -617 0 -5 163
-8 363 -8 l363 0 13 63 c7 34 17 79 22 100 l10 37 277 0 276 0 58 -57 c32 -32
58 -64 59 -73 0 -8 2 -10 4 -5 3 6 81 489 175 1075 94 586 173 1080 176 1098
l6 32 -219 0 -219 0 -57 58 c-53 54 -56 59 -50 95 l6 37 -255 0 -255 0 -78
-252z"/>
<path d="M18777 11263 c3 -32 55 -488 114 -1013 60 -525 106 -908 104 -850 -3
58 -8 513 -11 1013 l-7 907 -103 0 -104 0 7 -57z"/>
<path d="M17763 10033 c4 -38 7 -260 7 -495 l0 -428 293 0 292 0 -37 468 c-20
257 -37 479 -37 495 l-1 27 -261 0 -262 0 6 -67z"/>
</g>
</svg>
